# xmcd CD database file
#
# Track frame offsets:
#	150
#	24013
#	56308
#	76171
#	93495
#	112514
#	136925
#	159022
#	175239
#	193729
#	218207
#	242684
#	262667
#	288581
#
# Disc length: 4197 seconds
#
# Revision: 1
# Processed by: cddbd v1.5.1PL2 Copyright (c) Steve Scherf et al.
# Submitted via: CDex 1.51
#
DISCID=a310630e
DTITLE=Wild T and the Spirit - True Bliss
DYEAR=2004
DGENRE=Blues
TTITLE0=Heaven Knows
TTITLE1=Midnight Lady
TTITLE2=Jungle Love
TTITLE3=High Scholl Confidentiial
TTITLE4=True Bliss
TTITLE5=Love's Holiday
TTITLE6=Jenny
TTITLE7=Hard to Believe
TTITLE8=All the King's Horses
TTITLE9=You're the One
TTITLE10=Can't Get You (Outta My Mind)
TTITLE11=Dangerous
TTITLE12=Happy Song
TTITLE13=Hello
EXTD=YEAR: 2004
EXTT0=
EXTT1=
EXTT2=
EXTT3=
EXTT4=
EXTT5=
EXTT6=
EXTT7=
EXTT8=
EXTT9=
EXTT10=
EXTT11=
EXTT12=
EXTT13=
PLAYORDER=
